<mxfile host="app.diagrams.net" agent="Mozilla/5.0 (Windows NT 10.0; Win64; x64) AppleWebKit/537.36 (KHTML, like Gecko) Chrome/129.0.0.0 Safari/537.36" version="24.7.17">
  <diagram id="Dph-WKqFkl66xCKW0Mi4" name="Página-1">
    <mxGraphModel dx="1509" dy="821" grid="1" gridSize="10" guides="1" tooltips="1" connect="1" arrows="1" fold="1" page="1" pageScale="1" pageWidth="827" pageHeight="1169" math="0" shadow="0">
      <root>
        <mxCell id="0" />
        <mxCell id="1" parent="0" />
        <mxCell id="NyRInkevITMn1MQ5TwHw-1" value="Usuário" style="shape=umlActor;verticalLabelPosition=bottom;verticalAlign=top;html=1;outlineConnect=0;" vertex="1" parent="1">
          <mxGeometry x="210" y="91" width="30" height="60" as="geometry" />
        </mxCell>
        <mxCell id="NyRInkevITMn1MQ5TwHw-2" value="Sistema" style="rounded=0;whiteSpace=wrap;html=1;" vertex="1" parent="1">
          <mxGeometry x="515" y="137" width="80" height="30" as="geometry" />
        </mxCell>
        <mxCell id="NyRInkevITMn1MQ5TwHw-3" value="" style="endArrow=none;dashed=1;html=1;rounded=0;" edge="1" parent="1">
          <mxGeometry width="50" height="50" relative="1" as="geometry">
            <mxPoint x="224" y="731" as="sourcePoint" />
            <mxPoint x="224" y="171" as="targetPoint" />
          </mxGeometry>
        </mxCell>
        <mxCell id="NyRInkevITMn1MQ5TwHw-4" value="" style="endArrow=none;dashed=1;html=1;rounded=0;" edge="1" parent="1" source="NyRInkevITMn1MQ5TwHw-7">
          <mxGeometry width="50" height="50" relative="1" as="geometry">
            <mxPoint x="555" y="732" as="sourcePoint" />
            <mxPoint x="555" y="172" as="targetPoint" />
          </mxGeometry>
        </mxCell>
        <mxCell id="NyRInkevITMn1MQ5TwHw-6" value="" style="endArrow=classic;html=1;rounded=0;" edge="1" parent="1">
          <mxGeometry width="50" height="50" relative="1" as="geometry">
            <mxPoint x="225" y="251" as="sourcePoint" />
            <mxPoint x="550" y="251" as="targetPoint" />
          </mxGeometry>
        </mxCell>
        <mxCell id="NyRInkevITMn1MQ5TwHw-8" value="" style="endArrow=none;dashed=1;html=1;rounded=0;" edge="1" parent="1" target="NyRInkevITMn1MQ5TwHw-7">
          <mxGeometry width="50" height="50" relative="1" as="geometry">
            <mxPoint x="555" y="732" as="sourcePoint" />
            <mxPoint x="555" y="172" as="targetPoint" />
          </mxGeometry>
        </mxCell>
        <mxCell id="NyRInkevITMn1MQ5TwHw-7" value="" style="rounded=0;whiteSpace=wrap;html=1;rotation=90;" vertex="1" parent="1">
          <mxGeometry x="535" y="261" width="40" height="10" as="geometry" />
        </mxCell>
        <mxCell id="NyRInkevITMn1MQ5TwHw-9" value="" style="endArrow=none;dashed=1;html=1;rounded=0;endFill=0;startArrow=openThin;startFill=0;" edge="1" parent="1">
          <mxGeometry width="50" height="50" relative="1" as="geometry">
            <mxPoint x="222" y="286" as="sourcePoint" />
            <mxPoint x="552" y="286" as="targetPoint" />
          </mxGeometry>
        </mxCell>
        <mxCell id="NyRInkevITMn1MQ5TwHw-10" value="Inicia uma entrada" style="text;html=1;align=center;verticalAlign=middle;resizable=0;points=[];autosize=1;strokeColor=none;fillColor=none;" vertex="1" parent="1">
          <mxGeometry x="330" y="229" width="120" height="30" as="geometry" />
        </mxCell>
        <mxCell id="NyRInkevITMn1MQ5TwHw-11" value="Mostra a interface de registro do produto" style="text;html=1;align=center;verticalAlign=middle;resizable=0;points=[];autosize=1;strokeColor=none;fillColor=none;" vertex="1" parent="1">
          <mxGeometry x="269" y="266" width="240" height="30" as="geometry" />
        </mxCell>
        <mxCell id="NyRInkevITMn1MQ5TwHw-12" value="&lt;font style=&quot;font-size: 14px;&quot;&gt;Diagrama de Sequência do Sistema de Registrar um Produto&lt;/font&gt;" style="text;html=1;align=center;verticalAlign=middle;resizable=0;points=[];autosize=1;strokeColor=none;fillColor=none;fontStyle=1" vertex="1" parent="1">
          <mxGeometry x="215" y="31" width="400" height="30" as="geometry" />
        </mxCell>
        <mxCell id="NyRInkevITMn1MQ5TwHw-13" value="" style="endArrow=classic;html=1;rounded=0;" edge="1" parent="1">
          <mxGeometry width="50" height="50" relative="1" as="geometry">
            <mxPoint x="224" y="341" as="sourcePoint" />
            <mxPoint x="549" y="341" as="targetPoint" />
          </mxGeometry>
        </mxCell>
        <mxCell id="NyRInkevITMn1MQ5TwHw-14" value="Entrar Produto (Nome, preço, descrição e quantidade)" style="text;html=1;align=center;verticalAlign=middle;resizable=0;points=[];autosize=1;strokeColor=none;fillColor=none;" vertex="1" parent="1">
          <mxGeometry x="235" y="319" width="310" height="30" as="geometry" />
        </mxCell>
        <mxCell id="NyRInkevITMn1MQ5TwHw-15" value="" style="rounded=0;whiteSpace=wrap;html=1;rotation=90;" vertex="1" parent="1">
          <mxGeometry x="414.7" y="476.31" width="280.62" height="10" as="geometry" />
        </mxCell>
        <mxCell id="NyRInkevITMn1MQ5TwHw-16" value="Alternativa" style="shape=umlFrame;whiteSpace=wrap;html=1;pointerEvents=0;width=70;height=30;" vertex="1" parent="1">
          <mxGeometry x="130" y="360" width="520" height="310" as="geometry" />
        </mxCell>
        <mxCell id="NyRInkevITMn1MQ5TwHw-17" value="Se o produto já existe" style="text;html=1;align=center;verticalAlign=middle;resizable=0;points=[];autosize=1;strokeColor=none;fillColor=none;" vertex="1" parent="1">
          <mxGeometry x="214" y="359" width="140" height="30" as="geometry" />
        </mxCell>
        <mxCell id="NyRInkevITMn1MQ5TwHw-18" value="Laço" style="shape=umlFrame;whiteSpace=wrap;html=1;pointerEvents=0;width=70;height=30;" vertex="1" parent="1">
          <mxGeometry x="200" y="389" width="390" height="121" as="geometry" />
        </mxCell>
        <mxCell id="NyRInkevITMn1MQ5TwHw-19" value="Enquanto o produto existir" style="text;html=1;align=center;verticalAlign=middle;resizable=0;points=[];autosize=1;strokeColor=none;fillColor=none;" vertex="1" parent="1">
          <mxGeometry x="265" y="389" width="160" height="30" as="geometry" />
        </mxCell>
        <mxCell id="NyRInkevITMn1MQ5TwHw-20" value="" style="endArrow=none;dashed=1;html=1;rounded=0;endFill=0;startArrow=openThin;startFill=0;" edge="1" parent="1">
          <mxGeometry width="50" height="50" relative="1" as="geometry">
            <mxPoint x="222" y="446" as="sourcePoint" />
            <mxPoint x="550" y="446" as="targetPoint" />
          </mxGeometry>
        </mxCell>
        <mxCell id="NyRInkevITMn1MQ5TwHw-21" value="Retorna uma mensagem de aviso" style="text;html=1;align=center;verticalAlign=middle;resizable=0;points=[];autosize=1;strokeColor=none;fillColor=none;" vertex="1" parent="1">
          <mxGeometry x="289" y="426" width="200" height="30" as="geometry" />
        </mxCell>
        <mxCell id="NyRInkevITMn1MQ5TwHw-22" value="" style="endArrow=classic;html=1;rounded=0;" edge="1" parent="1">
          <mxGeometry width="50" height="50" relative="1" as="geometry">
            <mxPoint x="225" y="491" as="sourcePoint" />
            <mxPoint x="550" y="491" as="targetPoint" />
          </mxGeometry>
        </mxCell>
        <mxCell id="NyRInkevITMn1MQ5TwHw-23" value="Entrar novamente com os dados" style="text;html=1;align=center;verticalAlign=middle;resizable=0;points=[];autosize=1;strokeColor=none;fillColor=none;" vertex="1" parent="1">
          <mxGeometry x="286" y="470" width="200" height="30" as="geometry" />
        </mxCell>
        <mxCell id="NyRInkevITMn1MQ5TwHw-24" value="" style="endArrow=none;dashed=1;html=1;rounded=0;exitX=0;exitY=0.655;exitDx=0;exitDy=0;exitPerimeter=0;entryX=1;entryY=0.655;entryDx=0;entryDy=0;entryPerimeter=0;" edge="1" parent="1" source="NyRInkevITMn1MQ5TwHw-16" target="NyRInkevITMn1MQ5TwHw-16">
          <mxGeometry width="50" height="50" relative="1" as="geometry">
            <mxPoint x="390" y="560" as="sourcePoint" />
            <mxPoint x="440" y="510" as="targetPoint" />
          </mxGeometry>
        </mxCell>
        <mxCell id="NyRInkevITMn1MQ5TwHw-25" value="Se o produto não existe" style="text;html=1;align=center;verticalAlign=middle;resizable=0;points=[];autosize=1;strokeColor=none;fillColor=none;" vertex="1" parent="1">
          <mxGeometry x="216" y="559" width="150" height="30" as="geometry" />
        </mxCell>
        <mxCell id="NyRInkevITMn1MQ5TwHw-27" value="" style="endArrow=none;dashed=1;html=1;rounded=0;endFill=0;startArrow=openThin;startFill=0;" edge="1" parent="1">
          <mxGeometry width="50" height="50" relative="1" as="geometry">
            <mxPoint x="223" y="622" as="sourcePoint" />
            <mxPoint x="553" y="622" as="targetPoint" />
          </mxGeometry>
        </mxCell>
        <mxCell id="NyRInkevITMn1MQ5TwHw-28" value="Avisa que o produto foi registrado" style="text;html=1;align=center;verticalAlign=middle;resizable=0;points=[];autosize=1;strokeColor=none;fillColor=none;" vertex="1" parent="1">
          <mxGeometry x="286" y="602" width="200" height="30" as="geometry" />
        </mxCell>
      </root>
    </mxGraphModel>
  </diagram>
</mxfile>
